<svg xmlns="http://www.w3.org/2000/svg" viewBox="0 0 32 32" id="contractor">
  <path d="M30,16A13.97561,13.97561,0,0,0,24,4.52673V4.5A2.50232,2.50232,0,0,0,21.5,2H18.94122a3.16265,3.16265,0,0,0-5.88239,0H10.5A2.50232,2.50232,0,0,0,8,4.5v.0238A13.98563,13.98563,0,0,0,2,16a2,2,0,0,0,0,4H3v1.67871a.49971.49971,0,0,0,.5.5H5.25586a11.22611,11.22611,0,0,0,.89844,2.1709L4.91309,25.59082a.49982.49982,0,0,0,0,.707l3.78906,3.78809a.49982.49982,0,0,0,.707,0l1.24121-1.24121a11.16861,11.16861,0,0,0,2.1709.89941V31.5a.49971.49971,0,0,0,.5.5h5.35742a.49971.49971,0,0,0,.5-.5V29.74414a11.16861,11.16861,0,0,0,2.1709-.89941l1.24121,1.24121a.49982.49982,0,0,0,.707,0l3.78906-3.78809a.49982.49982,0,0,0,0-.707L25.8457,24.34961a11.22611,11.22611,0,0,0,.89844-2.1709H28.5a.49971.49971,0,0,0,.5-.5V20h1a2,2,0,0,0,0-4ZM8,5.783V9.5a.5.5,0,0,0,1,0v-5A1.50164,1.50164,0,0,1,10.5,3h2.32025L12.001,14.46484a.49985.49985,0,0,0,.46387.53418.51808.51808,0,0,0,.53418-.46387l.82227-11.50684a2.18429,2.18429,0,0,1,4.35742,0L19.001,14.53516A.50063.50063,0,0,0,19.499,15c.0127,0,.02441,0,.03613-.001a.49985.49985,0,0,0,.46387-.53418L19.17975,3H21.5A1.50164,1.50164,0,0,1,23,4.5v5a.5.5,0,0,0,1,0V5.78162A12.96973,12.96973,0,0,1,29,16H3A12.97394,12.97394,0,0,1,8,5.783ZM28,21.17871H26.36328a.50044.50044,0,0,0-.48437.375,10.16705,10.16705,0,0,1-1.08691,2.627.49944.49944,0,0,0,.07715.60742l1.15723,1.15625-3.082,3.08105-1.15625-1.15625a.49572.49572,0,0,0-.60742-.07715,10.16705,10.16705,0,0,1-2.627,1.08691.50044.50044,0,0,0-.375.48438V31H13.82129V29.36328a.50044.50044,0,0,0-.375-.48437,10.16705,10.16705,0,0,1-2.627-1.08691.49842.49842,0,0,0-.60742.07715L9.05566,29.02539l-3.082-3.08105,1.15723-1.15625a.49944.49944,0,0,0,.07715-.60742,10.16705,10.16705,0,0,1-1.08691-2.627.50044.50044,0,0,0-.48437-.375H4V20H9.5481A6.49475,6.49475,0,0,0,22.4519,20H28ZM10.57709,20H21.42291a5.47058,5.47058,0,0,1-10.84583,0ZM30,19H2a1,1,0,0,1,0-2H30a1,1,0,0,1,0,2Z"></path>
</svg>
