<svg xmlns="http://www.w3.org/2000/svg" width="24" height="24" fill="none" viewBox="0 0 24 24" id="file-return">
  <g clip-path="url(#clip0_4085_17631)">
    <mask id="mask0_4085_17631" width="24" height="24" x="0" y="0" maskUnits="userSpaceOnUse" style="mask-type:luminance">
      <path fill="#fff" d="M24 0H0V24H24V0Z"></path>
    </mask>
    <g mask="url(#mask0_4085_17631)">
      <path fill="#010101" d="M10.5001 22.6H4.50011C2.62011 22.6 1.1001 21.07 1.1001 19.2V4.80002C1.1001 2.92002 2.63011 1.40002 4.50011 1.40002H15.3001C17.1701 1.40002 18.7001 2.93002 18.7001 4.80002V9.60002C18.7001 10.15 18.2501 10.6 17.7001 10.6C17.1501 10.6 16.7001 10.15 16.7001 9.60002V4.80002C16.7001 4.03002 16.0701 3.40002 15.3001 3.40002H4.50011C3.73011 3.40002 3.1001 4.03002 3.1001 4.80002V19.2C3.1001 19.97 3.73011 20.6 4.50011 20.6H10.5001C11.0501 20.6 11.5001 21.05 11.5001 21.6C11.5001 22.15 11.0501 22.6 10.5001 22.6ZM15.3401 21.4C15.0801 21.4 14.8301 21.3 14.6301 21.11L12.1901 18.66C12.1101 18.58 12.0401 18.48 11.9901 18.38C11.9401 18.26 11.9101 18.13 11.9101 18C11.9101 17.86 11.9401 17.74 11.9901 17.62C12.0001 17.61 12.0001 17.59 12.0101 17.58C12.0501 17.5 12.1101 17.41 12.1801 17.34L14.5101 14.99C14.9001 14.6 15.5301 14.6 15.9201 14.99C16.3101 15.38 16.3101 16.01 15.9201 16.4L15.2801 17.04H20.1001C20.5301 17.04 20.8701 16.69 20.8701 16.27C20.8701 15.85 20.5201 15.5 20.1001 15.5H17.6701C17.1201 15.5 16.6701 15.05 16.6701 14.5C16.6701 13.95 17.1201 13.5 17.6701 13.5H20.1001C21.6301 13.5 22.8701 14.74 22.8701 16.27C22.8701 17.8 21.6301 19.04 20.1001 19.04H15.2801L16.0301 19.79C16.4201 20.18 16.4201 20.81 16.0301 21.2C15.8501 21.3 15.6001 21.4 15.3401 21.4ZM9.9001 15.4H6.30009C5.75009 15.4 5.30009 14.95 5.30009 14.4C5.30009 13.85 5.75009 13.4 6.30009 13.4H9.9001C10.4501 13.4 10.9001 13.85 10.9001 14.4C10.9001 14.95 10.4501 15.4 9.9001 15.4ZM13.5001 11.8H6.30009C5.75009 11.8 5.30009 11.35 5.30009 10.8C5.30009 10.25 5.75009 9.80002 6.30009 9.80002H13.5001C14.0501 9.80002 14.5001 10.25 14.5001 10.8C14.5001 11.35 14.0501 11.8 13.5001 11.8ZM13.5001 8.20003H6.30009C5.75009 8.20003 5.30009 7.75003 5.30009 7.20003C5.30009 6.65003 5.75009 6.20003 6.30009 6.20003H13.5001C14.0501 6.20003 14.5001 6.65003 14.5001 7.20003C14.5001 7.75003 14.0501 8.20003 13.5001 8.20003Z"></path>
    </g>
  </g>
  <defs>
    <clipPath id="clip0_4085_17631">
      <rect width="24" height="24" fill="#fff"></rect>
    </clipPath>
  </defs>
</svg>
